<svg width="20" height="20" viewBox="0 0 20 20" fill="none" xmlns="http://www.w3.org/2000/svg">
<g clip-path="url(#clip0_63_30)">
<path d="M6.72224 3.61273C6.94226 3.00839 8.05774 3.00839 8.27776 3.61273C8.73051 4.85629 9.37658 6.25969 10.2045 7.13636C11.07 8.05272 12.479 8.75866 13.691 9.24034C14.2733 9.4718 14.2733 10.5282 13.6909 10.7597C12.479 11.2413 11.07 11.9473 10.2045 12.8636C9.37658 13.7403 8.73051 15.1437 8.27776 16.3873C8.05774 16.9916 6.94226 16.9916 6.72224 16.3873C6.26949 15.1437 5.62342 13.7403 4.79545 12.8636C3.93 11.9473 2.52102 11.2413 1.30905 10.7597C0.72668 10.5282 0.726681 9.4718 1.30905 9.24034C2.52102 8.75866 3.93 8.05272 4.79545 7.13636C5.62342 6.25969 6.26949 4.85629 6.72224 3.61273Z" fill="#327BFF"/>
<path d="M15.7452 1.81924C15.8197 1.6211 16.1803 1.6211 16.2548 1.81924C16.4154 2.24603 16.6501 2.74102 16.9545 3.04545C17.259 3.34989 17.754 3.58465 18.1808 3.74517C18.3789 3.8197 18.3789 4.1803 18.1808 4.25483C17.754 4.41535 17.259 4.65011 16.9545 4.95455C16.6501 5.25898 16.4154 5.75397 16.2548 6.18076C16.1803 6.3789 15.8197 6.3789 15.7452 6.18076C15.5846 5.75397 15.3499 5.25898 15.0455 4.95455C14.741 4.65011 14.246 4.41535 13.8192 4.25483C13.6211 4.1803 13.6211 3.8197 13.8192 3.74517C14.246 3.58465 14.741 3.34989 15.0455 3.04545C15.3499 2.74102 15.5846 2.24603 15.7452 1.81924Z" fill="#327BFF"/>
<path d="M15.7452 13.8192C15.8197 13.6211 16.1803 13.6211 16.2548 13.8192C16.4154 14.246 16.6501 14.741 16.9545 15.0455C17.259 15.3499 17.754 15.5846 18.1808 15.7452C18.3789 15.8197 18.3789 16.1803 18.1808 16.2548C17.754 16.4154 17.259 16.6501 16.9545 16.9545C16.6501 17.259 16.4154 17.754 16.2548 18.1808C16.1803 18.3789 15.8197 18.3789 15.7452 18.1808C15.5846 17.754 15.3499 17.259 15.0455 16.9545C14.741 16.6501 14.246 16.4154 13.8192 16.2548C13.6211 16.1803 13.6211 15.8197 13.8192 15.7452C14.246 15.5846 14.741 15.3499 15.0455 15.0455C15.3499 14.741 15.5846 14.246 15.7452 13.8192Z" fill="#327BFF"/>
</g>
<defs>
<clipPath id="clip0_63_30">
<rect width="20" height="20" fill="white"/>
</clipPath>
</defs>
</svg>
